<svg width="32" height="32" viewBox="0 0 32 32" fill="none" xmlns="http://www.w3.org/2000/svg">
<g clip-path="url(#clip0_64_146)">
<path d="M11.5787 4.61127C11.9999 3.60752 13.4999 3.91127 13.4999 5.00002V25C13.4999 25.2652 13.3946 25.5196 13.2071 25.7071C13.0195 25.8947 12.7652 26 12.4999 26H4.99995C4.83479 26.0001 4.67218 25.9593 4.52665 25.8812C4.38113 25.8031 4.25721 25.6901 4.16597 25.5525C4.07472 25.4148 4.019 25.2567 4.00377 25.0922C3.98854 24.9278 4.01429 24.7621 4.0787 24.61L11.5787 4.61127Z" fill="white" stroke="white" stroke-width="2" stroke-linecap="round" stroke-linejoin="round"/>
<path d="M20.4212 4.61127C20 3.60752 18.5 3.91127 18.5 5.00002V25C18.5 25.2652 18.6054 25.5196 18.7929 25.7071C18.9804 25.8947 19.2348 26 19.5 26H27C27.1652 26.0001 27.3278 25.9593 27.4733 25.8812C27.6188 25.8031 27.7427 25.6901 27.834 25.5525C27.9252 25.4148 27.9809 25.2567 27.9962 25.0922C28.0114 24.9278 27.9857 24.7621 27.9212 24.61L20.4212 4.61127Z" fill="white" stroke="white" stroke-width="2" stroke-linecap="round" stroke-linejoin="round"/>
</g>
<defs>
<clipPath id="clip0_64_146">
<rect width="32" height="32" fill="white"/>
</clipPath>
</defs>
</svg>
